<svg width="1024" height="512" viewBox="0 0 1024 512" fill="none" xmlns="http://www.w3.org/2000/svg">
<path d="M432.962 507.44C400.557 514.53 371.947 513.421 336.357 503.633C298.967 493.389 267.615 472.77 261.272 454.24C253.434 431.424 268.058 406.52 295.893 395.298C301.93 392.862 317.828 388.164 331.205 384.879C344.583 381.573 358.625 377.267 362.447 375.309C370.368 371.242 371.476 363.043 365.217 354.451C355.578 341.206 362.142 340.271 378.982 352.45C393.661 363.064 403.327 377.658 402.108 387.337C401.25 394.188 400.612 394.493 369.786 402.584C322.98 414.872 298.801 428.836 291.572 447.736C287.584 458.198 289.578 465.114 299.105 474.01C315.197 489.017 345.58 495.39 382.721 491.519C414.461 488.191 437.781 479.426 458.775 462.939C486.887 440.863 496.47 415.394 487.33 387.033C477.47 356.409 455.257 331.94 415.818 308.211C395.987 296.292 385.573 293.139 381.807 297.924C379.286 301.121 346.438 321.283 320.902 335.246C223.716 388.49 123.012 394.993 60.889 352.037C43.4957 340.031 36.987 329.57 37.0701 313.758C37.2917 271.215 94.2631 244.615 190.896 241.94C240.915 240.569 261.798 243.266 315.363 257.969C360.176 270.301 364.496 270.976 369.316 266.408C372.667 263.233 368.734 259.361 334.529 232.326C313.341 215.535 284.149 193.699 269.664 183.781C211.391 143.87 209.868 142.565 212.914 135.844C217.789 125.056 222.691 124.643 241.663 133.386C251.135 137.736 260.746 141.303 262.989 141.303C268.999 141.303 288.747 133.017 300.739 125.448C318.604 114.16 329.654 87.4509 317.911 83.9057C310.987 81.8177 228.618 82.3614 226.929 84.5147C226.098 85.5587 227.261 87.6466 229.532 89.1256C231.803 90.6046 233.659 92.6709 233.659 93.7148C233.659 98.1083 224.436 95.0633 213.219 86.9289C202.334 79.0772 199.786 78.229 186.547 78.229H171.924L173.89 93.9976C174.998 102.676 176.881 129.341 178.128 153.266C179.346 177.191 181.257 198.484 182.365 200.572C185.55 206.575 178.405 205.248 161.593 196.744C153.312 192.546 145.474 186.913 144.227 184.238C142.953 181.562 141.181 167.773 140.267 153.592L138.605 127.819L104.899 128.58C72.8815 129.298 70.6935 129.646 60.9167 135.496C55.2666 138.889 47.4286 145.479 43.4957 150.134C37.2917 157.485 36.5162 160.378 37.541 171.688C38.9812 187.282 44.7143 193.111 67.4807 202.181C86.2035 209.641 94.7893 216.427 90.1641 220.059C87.6991 221.995 84.514 221.691 76.7867 218.82C59.7811 212.447 32.5556 196.113 17.8489 183.498C0.455549 168.556 -3.0342 159.638 2.2835 143.783C7.98895 126.84 18.0427 116.248 34.9375 109.331C48.4533 103.828 52.5524 103.328 92.8783 102.241C116.753 101.588 136.888 100.588 137.636 99.9788C138.383 99.3698 138.328 94.2368 137.497 88.5601L136.002 78.229H53.8541L46.8192 68.7896C42.9418 63.6131 39.7844 58.7194 39.7844 57.9147C39.7844 57.1317 184.775 56.4792 361.976 56.4792C539.205 56.4792 684.971 55.8484 685.968 55.0872C686.937 54.326 684.639 50.8242 680.872 47.3008C668.325 35.5994 673.228 18.6563 692.504 7.10714C701.395 1.80019 705.577 0.930201 725.518 0.255957C746.9 -0.461786 749.476 -0.0485394 765.207 6.54165C780.69 13.0231 823.591 44.6473 823.591 49.5845C823.591 52.6295 837.024 56.4792 847.964 56.5444C856.578 56.6097 859.846 58.1322 868.487 66.0708C874.137 71.2473 877.987 76.1193 877.018 76.8587C876.076 77.62 863.557 78.229 849.21 78.229H823.12L823.785 132.06C823.813 134.452 823.841 136.758 823.868 138.954C824.284 172.079 824.422 183.368 820.074 184.564C817.803 185.194 814.341 183.128 809.078 179.996C808.414 179.583 807.721 179.17 806.973 178.735C800.88 175.124 796.892 173.08 794.344 170.231C789.552 164.902 789.857 156.789 790.771 130.298C790.882 127.906 790.965 125.361 791.048 122.642L792.571 78.229H774.624C764.737 78.229 757.148 78.9685 757.729 79.8602C774.43 105.481 777.172 119.162 768.365 133.408C761.164 145.088 748.368 154.419 728.98 162.14C721.226 165.228 715.991 168.469 717.32 169.361C745.681 188.348 817.941 230.369 831.734 235.893C848.989 242.81 878.956 249.835 901.556 252.271C920.002 254.25 927.12 254.076 943.35 251.162C954.124 249.248 965.535 246.594 968.72 245.267C976.918 241.853 986.834 232.805 991.459 224.453C995.807 216.645 994.062 211.947 983.482 202.812C978.497 198.527 978.386 197.809 982.319 196.613C987.055 195.199 1011.4 209.815 1018.32 218.254C1027.99 230.064 1025.25 243.506 1010.57 256.251C987.526 276.283 948.336 281.503 900.504 270.889C853.669 260.492 824.699 246.638 739.117 193.677C709.648 175.451 698.348 169.665 692.061 169.622C681.038 169.556 657.136 159.856 643.288 149.786C630.104 140.238 629.357 132.843 641.266 129.559C647.609 127.819 651.265 128.841 666.498 136.649L684.334 145.762L696.493 141.651C703.167 139.389 715.105 132.995 722.97 127.405C734.354 119.358 737.871 115.247 740.004 107.417C741.472 101.98 741.998 95.4113 741.195 92.7796C737.926 82.2962 736.431 81.9917 694.775 83.6229C660.875 84.9714 655.28 84.7104 652.095 81.6872C649.575 79.3165 643.814 78.229 633.788 78.229H619.137L617.253 96.1726C614.927 118.27 616.727 186.673 619.774 191.872C624.399 199.789 613.708 195.504 599.666 183.846L585.403 172.014V78.229H486.333L487.634 92.9101C488.327 100.979 489.158 108.374 489.435 109.353C489.739 110.31 497.716 111.441 507.16 111.832C532.696 112.92 551.391 122.599 569.893 144.327C580.583 156.898 580.14 174.341 568.757 186.652C563.716 192.133 558.232 195.678 554.798 195.678C549.48 195.678 521.701 177.386 521.701 173.863C521.701 172.971 524.72 171.623 528.403 170.905C537.709 169.078 546.628 156.855 546.628 145.936V136.953H527.102C509.736 136.953 506.856 137.562 501.039 142.5C490.182 151.7 489.407 168.469 498.325 201.659C499.793 207.075 499.295 208.728 496.22 208.728C490.099 208.728 465.367 194.177 463.012 189.196C461.157 185.26 458.747 184.846 439.387 185.238C414.433 185.738 402.413 181.932 385.435 168.121C348.654 138.215 368.152 99.9788 420.166 99.9788C431.965 99.9788 439.194 101.262 445.896 104.503L455.23 109.027V98.4563C455.23 92.4099 453.374 85.8197 450.909 83.0574C446.699 78.3377 445.37 78.229 389.728 78.229H332.867L340.456 85.2977C357.434 101.088 360.01 117.901 348.156 135.039C337.216 150.83 314.338 162.879 286.365 167.599C278.693 168.882 272.434 170.383 272.434 170.927C272.434 171.47 280.853 177.887 291.129 185.194C301.404 192.524 326.22 211.708 346.272 227.868L382.721 257.208L400.474 248.421C430.663 233.436 468.136 222.191 503.92 217.406C574.296 207.945 646.944 214.274 698.958 234.349C725.048 244.419 758.256 269.366 769.14 287.071C779.942 304.623 783.902 321.457 779.776 332.288C771.827 353.125 748.783 371.547 719.121 380.856C696.41 387.968 639.826 388.011 603.571 380.921C553.302 371.112 496.58 345.143 425.567 299.446C414.599 292.378 404.102 287.005 402.247 287.484C400.363 287.984 403.05 290.659 408.367 293.574C447.752 315.215 489.019 349.601 505.083 374.2C524.831 404.454 526.825 436.84 510.429 461.004C495.389 483.145 467.444 499.892 432.962 507.44ZM606.175 364.021C634.619 368.937 678.85 367.545 700.093 361.063C731.639 351.406 752.273 328.656 752.273 303.492C752.245 287.527 747.232 277.435 733.329 265.343C720.672 254.337 705.245 248.03 674.031 241.135C653.009 236.481 645.005 235.915 599.251 235.959C544.661 236.002 521.95 238.547 482.871 248.987C461.323 254.729 430.192 267.082 418.172 274.651L410.195 279.676L429.195 291.508C499.101 335.051 543.304 353.146 606.175 364.021ZM107.28 360.085C130.213 363.652 135.697 363.652 159.322 360.085C180.316 356.931 228.674 343.533 250.166 334.92C282.958 321.783 351.562 282.112 348.433 278.11C345.137 273.934 318.244 264.842 300.49 261.884C275.619 257.752 212.665 257.861 183.418 262.124C94.1523 275.065 49.1734 306.123 70.2227 340.271C77.8669 352.646 85.428 356.713 107.28 360.085ZM702.974 51.1505C709.704 56.4139 710.396 56.4792 759.751 56.4792C806.752 56.4792 809.743 56.2399 809.743 52.412C809.743 46.7135 787.337 31.0972 770.11 24.8115C743.41 15.0458 710.23 19.722 700.398 34.6424C694.775 43.1901 695.025 44.8865 702.974 51.1505ZM408.063 159.377C416.344 163.814 427.367 164.075 439.498 160.095C454.51 155.18 457.999 150.982 457.999 137.932C457.999 127.775 457.058 125.687 451.02 122.599C437.781 115.769 407.37 123.773 400.308 135.909C394.076 146.676 396.153 152.961 408.063 159.377Z" fill="black"/>
</svg>
